<svg width="1680" height="701" viewBox="0 0 1680 701" fill="none" xmlns="http://www.w3.org/2000/svg">
<path opacity="0.2" d="M0 0H420V273.056L264.306 446.667C226.806 488.472 256.528 555.139 312.639 555.139H420V700.139H0V550.139L258.75 256.528C269.167 244.722 275 229.306 275 213.611V210.139C275 174.306 245.833 145.139 210 145.139C174.167 145.139 145 174.306 145 210.139H0L0 0Z" fill="#D0D4DD"/>
<path opacity="0.2" d="M840 0H1260V273.056L1104.31 446.667C1066.81 488.472 1096.53 555.139 1152.64 555.139H1260V700.139H840V550.139L1098.75 256.528C1109.17 244.722 1115 229.306 1115 213.611V210.139C1115 174.306 1085.83 145.139 1050 145.139C1014.17 145.139 985 174.306 985 210.139H840V0Z" fill="#D0D4DD"/>
<path opacity="0.2" d="M420 0H840V700H420V0ZM565 210V490C565 525.833 594.167 555 630 555C665.833 555 695 525.833 695 490V210C695 174.167 665.833 145 630 145C594.167 145 565 174.167 565 210Z" fill="#D0D4DD"/>
<path opacity="0.2" d="M1680 700H1260V0H1680V210.972H1535V210C1535 174.167 1505.83 145 1470 145C1434.17 145 1405 174.167 1405 210V215C1405 250.833 1434.17 280 1470 280H1680V700ZM1405 485V490C1405 525.833 1434.17 555 1470 555C1505.83 555 1535 525.833 1535 490V485C1535 449.167 1505.83 420 1470 420C1434.17 420 1405 449.167 1405 485Z" fill="#D0D4DD"/>
</svg>
