<svg width="881" height="189" viewBox="0 0 881 189" fill="none" xmlns="http://www.w3.org/2000/svg">
<g filter="url(#filter0_d_525_2)">
<path d="M486.996 33.2754H571.039V60.1143H557.28C549.084 60.1143 542.429 66.7744 542.429 74.9752V158.524H515.606V74.9752C515.606 66.7744 508.951 60.1143 500.755 60.1143H486.996V33.2754Z" fill="#A3C121"/>
<path d="M641.745 33.2754H668.567V158.524H641.745V131.436C641.745 120.005 626.223 116.501 621.331 126.839L606.33 158.524H579.508V33.2754H606.33V60.3628C606.33 71.7943 621.852 75.2982 626.745 64.9602L641.745 33.2754Z" fill="#A3C121"/>
<path d="M394.459 33.2754H421.282V66.7247C421.282 75.1243 428.087 81.9334 436.481 81.9334C444.875 81.9334 451.68 75.1243 451.68 66.7247V33.2754H478.502V158.524H451.68V123.981C451.68 115.582 444.875 108.772 436.481 108.772C428.087 108.772 421.282 115.582 421.282 123.981V158.524H394.459V33.2754Z" fill="#A3C121"/>
<path d="M303 34H385.255V60.839H340.998C334.814 60.839 329.822 65.834 329.822 72.0219C329.822 78.2097 334.814 83.2048 340.998 83.2048H358.085V110.044H340.998C334.814 110.044 329.822 115.039 329.822 121.227C329.822 127.415 334.814 132.41 340.998 132.41H385.255V159.249H303V34Z" fill="#A3C121"/>
<path d="M12.1693 33.2754H76.3687L88.538 158.524H61.7158L59.8035 137.5C59.3564 132.704 55.3331 129.001 50.5151 129.001H38.0477C33.2297 129.001 29.2064 132.679 28.7593 137.5L26.847 158.524H0L12.1693 33.2754ZM42.0711 102.162H46.4421C51.9307 102.162 56.252 97.4404 55.7305 91.9483L53.545 68.5636C53.0979 63.7674 49.0746 60.0895 44.2566 60.0895C39.4385 60.0895 35.4152 63.7674 34.9682 68.5636L32.7826 91.9483C32.2611 97.4155 36.5824 102.162 42.0711 102.162Z" fill="#A3C121"/>
<path d="M794.656 33.2754H858.856L871.025 158.524H844.203L842.29 137.5C841.843 132.704 837.82 129.001 833.002 129.001H820.535C815.717 129.001 811.693 132.679 811.246 137.5L809.334 158.524H782.512L794.681 33.2754H794.656ZM824.558 102.162H828.929C834.418 102.162 838.739 97.4404 838.217 91.9483L836.032 68.5636C835.585 63.7674 831.562 60.0895 826.744 60.0895C821.925 60.0895 817.902 63.7674 817.455 68.5636L815.27 91.9483C814.748 97.4155 819.069 102.162 824.558 102.162Z" fill="#A3C121"/>
<path d="M157.878 33.2754H184.7V158.524H157.878V131.436C157.878 120.005 142.356 116.501 137.463 126.839L122.463 158.524H95.6406V33.2754H122.463V60.3628C122.463 71.7943 137.985 75.2982 142.877 64.9602L157.878 33.2754Z" fill="#A3C121"/>
<path d="M152.265 0H129.913C123.741 0 118.737 5.00676 118.737 11.1829C118.737 17.359 123.741 22.3658 129.913 22.3658H152.265C158.437 22.3658 163.441 17.359 163.441 11.1829C163.441 5.00676 158.437 0 152.265 0Z" fill="#A3C121"/>
<path d="M215.471 33.2754H283.073V121.297C283.073 127.038 287.717 131.685 293.454 131.685V174.975H266.632V168.166C266.632 162.823 262.311 158.524 256.996 158.524H228.361C223.021 158.524 218.725 162.848 218.725 168.166V174.975H191.902V131.685C197.838 131.685 202.855 127.286 203.649 121.397L215.496 33.2754H215.471ZM239.412 131.685H246.59C251.929 131.685 256.226 127.361 256.226 122.043V69.7813C256.226 64.4384 251.905 60.1392 246.59 60.1392C241.772 60.1392 237.699 63.6929 237.028 68.4891L229.851 120.751C229.056 126.541 233.551 131.71 239.412 131.71V131.685Z" fill="#A3C121"/>
<path d="M709.694 116.377V158.549H682.872V33.2753H709.694V74.3539C709.694 78.5537 713.097 81.9334 717.269 81.9334C720.175 81.9334 722.832 80.2684 724.099 77.6342L745.457 33.2505H773.72L745.184 90.3578C744.116 92.4702 744.116 94.9801 745.184 97.1173L775.533 158.499H746.028L724.124 113.047C722.857 110.413 720.2 108.748 717.294 108.748C713.097 108.748 709.719 112.152 709.719 116.327L709.694 116.377Z" fill="#A3C121"/>
</g>
<defs>
<filter id="filter0_d_525_2" x="0" y="0" width="880.025" height="188.975" filterUnits="userSpaceOnUse" color-interpolation-filters="sRGB">
<feFlood flood-opacity="0" result="BackgroundImageFix"/>
<feColorMatrix in="SourceAlpha" type="matrix" values="0 0 0 0 0 0 0 0 0 0 0 0 0 0 0 0 0 0 127 0" result="hardAlpha"/>
<feOffset dx="5" dy="10"/>
<feGaussianBlur stdDeviation="2"/>
<feComposite in2="hardAlpha" operator="out"/>
<feColorMatrix type="matrix" values="0 0 0 0 0 0 0 0 0 0 0 0 0 0 0 0 0 0 0.25 0"/>
<feBlend mode="normal" in2="BackgroundImageFix" result="effect1_dropShadow_525_2"/>
<feBlend mode="normal" in="SourceGraphic" in2="effect1_dropShadow_525_2" result="shape"/>
</filter>
</defs>
</svg>
