<svg width="670" height="83" viewBox="0 0 670 83" fill="none" xmlns="http://www.w3.org/2000/svg">
<g filter="url(#filter0_d_515_42)">
<path d="M560.806 1.78702H575.182V19.7372C575.182 24.2447 578.829 27.8987 583.328 27.8987C587.828 27.8987 591.475 24.2447 591.475 19.7372V1.78702H605.851V69H591.475V50.4631C591.475 45.9556 587.828 42.3015 583.328 42.3015C578.829 42.3015 575.182 45.9556 575.182 50.4631V69H560.806V1.78702Z" fill="#A3C121"/>
</g>
<g filter="url(#filter1_d_515_42)">
<path d="M446.874 1.78702H461.25C467.24 12.5358 482.668 12.5358 488.658 1.78702H503.034V69H488.658V40.8746C488.658 36.6871 483.107 35.2201 481.044 38.8608L474.961 49.6096L468.878 38.8608C466.814 35.2201 461.264 36.6871 461.264 40.8746V69H446.887V1.78702H446.874Z" fill="#A3C121"/>
</g>
<g filter="url(#filter2_d_515_42)">
<path d="M509.877 1.78702H553.964V16.1898H530.243C526.929 16.1898 524.253 18.8703 524.253 22.191C524.253 25.5116 526.929 28.1921 530.243 28.1921H539.401V42.5949H530.243C526.929 42.5949 524.253 45.2754 524.253 48.5961C524.253 51.9167 526.929 54.5972 530.243 54.5972H553.964V69H509.877V1.78702Z" fill="#A3C121"/>
</g>
<g filter="url(#filter3_d_515_42)">
<path d="M314.027 0H359.073V14.4028H351.698C347.306 14.4028 343.738 17.9768 343.738 22.3777V67.213H329.362V22.3777C329.362 17.9768 325.795 14.4028 321.402 14.4028H314.027V0Z" fill="#A3C121"/>
</g>
<g filter="url(#filter4_d_515_42)">
<path d="M292.809 0H307.186V67.213H292.809V52.6768C292.809 46.5423 284.49 44.662 281.867 50.2097L273.827 67.213H259.451V0H273.827V14.5361C273.827 20.6707 282.147 22.551 284.769 17.0033L292.809 0Z" fill="#A3C121"/>
</g>
<g filter="url(#filter5_d_515_42)">
<path d="M365.915 0H410.002V14.4028H386.281C382.967 14.4028 380.291 17.0833 380.291 20.4039C380.291 23.7246 382.967 26.4051 386.281 26.4051H395.44V40.8079H386.281C382.967 40.8079 380.291 43.4884 380.291 46.809C380.291 50.1297 382.967 52.8102 386.281 52.8102H410.002V67.213H365.915V0Z" fill="#A3C121"/>
</g>
<g filter="url(#filter6_d_515_42)">
<path d="M207.563 0H252.609V20.9374H238.233C238.233 17.3367 235.318 14.4028 231.71 14.4028H228.449C224.855 14.4028 221.926 17.3233 221.926 20.9374V46.2889C221.926 49.8896 224.842 52.8235 228.449 52.8235H231.71C235.304 52.8235 238.233 49.903 238.233 46.2889H252.609V67.2263H207.563V0Z" fill="#A3C121"/>
</g>
<g filter="url(#filter7_d_515_42)">
<path d="M51.8877 0.960175H96.9332V68.1732H82.557V23.5245C82.557 19.017 78.9097 15.363 74.4104 15.363C69.9112 15.363 66.2639 19.017 66.2639 23.5245V68.1732H51.8877V0.960175Z" fill="#A3C121"/>
</g>
<g filter="url(#filter8_d_515_42)">
<path d="M103.775 0.960175H148.821V48.0093H128.628C122.837 48.0093 118.152 52.7168 118.152 58.5046V68.1732H103.775V0.960175ZM118.165 23.5245V25.4449C118.165 29.9524 121.812 33.6065 126.311 33.6065C130.811 33.6065 134.458 29.9524 134.458 25.4449V23.5245C134.458 19.017 130.811 15.363 126.311 15.363C121.812 15.363 118.165 19.017 118.165 23.5245Z" fill="#A3C121"/>
</g>
<g filter="url(#filter9_d_515_42)">
<path d="M155.676 0.960175H200.721V68.1732H155.676V0.960175ZM170.052 23.5245V45.6088C170.052 50.1163 173.699 53.7704 178.199 53.7704C182.698 53.7704 186.345 50.1163 186.345 45.6088V23.5245C186.345 19.017 182.698 15.363 178.199 15.363C173.699 15.363 170.052 19.017 170.052 23.5245Z" fill="#A3C121"/>
</g>
<g filter="url(#filter10_d_515_42)">
<path d="M0 0.960175H45.0455V21.8976H30.6693C30.6693 18.2969 27.7541 15.363 24.1467 15.363H20.8855C17.2914 15.363 14.3629 18.2835 14.3629 21.8976V47.2491C14.3629 50.8498 17.2781 53.7837 20.8855 53.7837H24.1467C27.7408 53.7837 30.6693 50.8632 30.6693 47.2491H45.0455V68.1865H0V0.960175Z" fill="#A3C121"/>
</g>
<g filter="url(#filter11_d_515_42)">
<path d="M661 1.78702V69H646.624V46.9157H639.822L628.986 69H612.693L624.966 46.4356H615.955V1.78702H661ZM646.624 16.1898H630.331V32.513H646.624V16.1898Z" fill="#A3C121"/>
</g>
<defs>
<filter id="filter0_d_515_42" x="560.806" y="1.78702" width="54.0459" height="81.213" filterUnits="userSpaceOnUse" color-interpolation-filters="sRGB">
<feFlood flood-opacity="0" result="BackgroundImageFix"/>
<feColorMatrix in="SourceAlpha" type="matrix" values="0 0 0 0 0 0 0 0 0 0 0 0 0 0 0 0 0 0 127 0" result="hardAlpha"/>
<feOffset dx="5" dy="10"/>
<feGaussianBlur stdDeviation="2"/>
<feComposite in2="hardAlpha" operator="out"/>
<feColorMatrix type="matrix" values="0 0 0 0 0 0 0 0 0 0 0 0 0 0 0 0 0 0 0.25 0"/>
<feBlend mode="normal" in2="BackgroundImageFix" result="effect1_dropShadow_515_42"/>
<feBlend mode="normal" in="SourceGraphic" in2="effect1_dropShadow_515_42" result="shape"/>
</filter>
<filter id="filter1_d_515_42" x="446.874" y="1.78702" width="65.1602" height="81.213" filterUnits="userSpaceOnUse" color-interpolation-filters="sRGB">
<feFlood flood-opacity="0" result="BackgroundImageFix"/>
<feColorMatrix in="SourceAlpha" type="matrix" values="0 0 0 0 0 0 0 0 0 0 0 0 0 0 0 0 0 0 127 0" result="hardAlpha"/>
<feOffset dx="5" dy="10"/>
<feGaussianBlur stdDeviation="2"/>
<feComposite in2="hardAlpha" operator="out"/>
<feColorMatrix type="matrix" values="0 0 0 0 0 0 0 0 0 0 0 0 0 0 0 0 0 0 0.25 0"/>
<feBlend mode="normal" in2="BackgroundImageFix" result="effect1_dropShadow_515_42"/>
<feBlend mode="normal" in="SourceGraphic" in2="effect1_dropShadow_515_42" result="shape"/>
</filter>
<filter id="filter2_d_515_42" x="509.877" y="1.78702" width="53.0869" height="81.213" filterUnits="userSpaceOnUse" color-interpolation-filters="sRGB">
<feFlood flood-opacity="0" result="BackgroundImageFix"/>
<feColorMatrix in="SourceAlpha" type="matrix" values="0 0 0 0 0 0 0 0 0 0 0 0 0 0 0 0 0 0 127 0" result="hardAlpha"/>
<feOffset dx="5" dy="10"/>
<feGaussianBlur stdDeviation="2"/>
<feComposite in2="hardAlpha" operator="out"/>
<feColorMatrix type="matrix" values="0 0 0 0 0 0 0 0 0 0 0 0 0 0 0 0 0 0 0.25 0"/>
<feBlend mode="normal" in2="BackgroundImageFix" result="effect1_dropShadow_515_42"/>
<feBlend mode="normal" in="SourceGraphic" in2="effect1_dropShadow_515_42" result="shape"/>
</filter>
<filter id="filter3_d_515_42" x="314.027" y="0" width="54.0459" height="81.213" filterUnits="userSpaceOnUse" color-interpolation-filters="sRGB">
<feFlood flood-opacity="0" result="BackgroundImageFix"/>
<feColorMatrix in="SourceAlpha" type="matrix" values="0 0 0 0 0 0 0 0 0 0 0 0 0 0 0 0 0 0 127 0" result="hardAlpha"/>
<feOffset dx="5" dy="10"/>
<feGaussianBlur stdDeviation="2"/>
<feComposite in2="hardAlpha" operator="out"/>
<feColorMatrix type="matrix" values="0 0 0 0 0 0 0 0 0 0 0 0 0 0 0 0 0 0 0.25 0"/>
<feBlend mode="normal" in2="BackgroundImageFix" result="effect1_dropShadow_515_42"/>
<feBlend mode="normal" in="SourceGraphic" in2="effect1_dropShadow_515_42" result="shape"/>
</filter>
<filter id="filter4_d_515_42" x="259.451" y="0" width="56.7344" height="81.213" filterUnits="userSpaceOnUse" color-interpolation-filters="sRGB">
<feFlood flood-opacity="0" result="BackgroundImageFix"/>
<feColorMatrix in="SourceAlpha" type="matrix" values="0 0 0 0 0 0 0 0 0 0 0 0 0 0 0 0 0 0 127 0" result="hardAlpha"/>
<feOffset dx="5" dy="10"/>
<feGaussianBlur stdDeviation="2"/>
<feComposite in2="hardAlpha" operator="out"/>
<feColorMatrix type="matrix" values="0 0 0 0 0 0 0 0 0 0 0 0 0 0 0 0 0 0 0.25 0"/>
<feBlend mode="normal" in2="BackgroundImageFix" result="effect1_dropShadow_515_42"/>
<feBlend mode="normal" in="SourceGraphic" in2="effect1_dropShadow_515_42" result="shape"/>
</filter>
<filter id="filter5_d_515_42" x="365.915" y="0" width="53.0869" height="81.213" filterUnits="userSpaceOnUse" color-interpolation-filters="sRGB">
<feFlood flood-opacity="0" result="BackgroundImageFix"/>
<feColorMatrix in="SourceAlpha" type="matrix" values="0 0 0 0 0 0 0 0 0 0 0 0 0 0 0 0 0 0 127 0" result="hardAlpha"/>
<feOffset dx="5" dy="10"/>
<feGaussianBlur stdDeviation="2"/>
<feComposite in2="hardAlpha" operator="out"/>
<feColorMatrix type="matrix" values="0 0 0 0 0 0 0 0 0 0 0 0 0 0 0 0 0 0 0.25 0"/>
<feBlend mode="normal" in2="BackgroundImageFix" result="effect1_dropShadow_515_42"/>
<feBlend mode="normal" in="SourceGraphic" in2="effect1_dropShadow_515_42" result="shape"/>
</filter>
<filter id="filter6_d_515_42" x="207.563" y="0" width="54.0459" height="81.2263" filterUnits="userSpaceOnUse" color-interpolation-filters="sRGB">
<feFlood flood-opacity="0" result="BackgroundImageFix"/>
<feColorMatrix in="SourceAlpha" type="matrix" values="0 0 0 0 0 0 0 0 0 0 0 0 0 0 0 0 0 0 127 0" result="hardAlpha"/>
<feOffset dx="5" dy="10"/>
<feGaussianBlur stdDeviation="2"/>
<feComposite in2="hardAlpha" operator="out"/>
<feColorMatrix type="matrix" values="0 0 0 0 0 0 0 0 0 0 0 0 0 0 0 0 0 0 0.25 0"/>
<feBlend mode="normal" in2="BackgroundImageFix" result="effect1_dropShadow_515_42"/>
<feBlend mode="normal" in="SourceGraphic" in2="effect1_dropShadow_515_42" result="shape"/>
</filter>
<filter id="filter7_d_515_42" x="51.8877" y="0.960175" width="54.0459" height="81.213" filterUnits="userSpaceOnUse" color-interpolation-filters="sRGB">
<feFlood flood-opacity="0" result="BackgroundImageFix"/>
<feColorMatrix in="SourceAlpha" type="matrix" values="0 0 0 0 0 0 0 0 0 0 0 0 0 0 0 0 0 0 127 0" result="hardAlpha"/>
<feOffset dx="5" dy="10"/>
<feGaussianBlur stdDeviation="2"/>
<feComposite in2="hardAlpha" operator="out"/>
<feColorMatrix type="matrix" values="0 0 0 0 0 0 0 0 0 0 0 0 0 0 0 0 0 0 0.25 0"/>
<feBlend mode="normal" in2="BackgroundImageFix" result="effect1_dropShadow_515_42"/>
<feBlend mode="normal" in="SourceGraphic" in2="effect1_dropShadow_515_42" result="shape"/>
</filter>
<filter id="filter8_d_515_42" x="103.775" y="0.960175" width="54.0459" height="81.213" filterUnits="userSpaceOnUse" color-interpolation-filters="sRGB">
<feFlood flood-opacity="0" result="BackgroundImageFix"/>
<feColorMatrix in="SourceAlpha" type="matrix" values="0 0 0 0 0 0 0 0 0 0 0 0 0 0 0 0 0 0 127 0" result="hardAlpha"/>
<feOffset dx="5" dy="10"/>
<feGaussianBlur stdDeviation="2"/>
<feComposite in2="hardAlpha" operator="out"/>
<feColorMatrix type="matrix" values="0 0 0 0 0 0 0 0 0 0 0 0 0 0 0 0 0 0 0.25 0"/>
<feBlend mode="normal" in2="BackgroundImageFix" result="effect1_dropShadow_515_42"/>
<feBlend mode="normal" in="SourceGraphic" in2="effect1_dropShadow_515_42" result="shape"/>
</filter>
<filter id="filter9_d_515_42" x="155.676" y="0.960175" width="54.0459" height="81.213" filterUnits="userSpaceOnUse" color-interpolation-filters="sRGB">
<feFlood flood-opacity="0" result="BackgroundImageFix"/>
<feColorMatrix in="SourceAlpha" type="matrix" values="0 0 0 0 0 0 0 0 0 0 0 0 0 0 0 0 0 0 127 0" result="hardAlpha"/>
<feOffset dx="5" dy="10"/>
<feGaussianBlur stdDeviation="2"/>
<feComposite in2="hardAlpha" operator="out"/>
<feColorMatrix type="matrix" values="0 0 0 0 0 0 0 0 0 0 0 0 0 0 0 0 0 0 0.25 0"/>
<feBlend mode="normal" in2="BackgroundImageFix" result="effect1_dropShadow_515_42"/>
<feBlend mode="normal" in="SourceGraphic" in2="effect1_dropShadow_515_42" result="shape"/>
</filter>
<filter id="filter10_d_515_42" x="0" y="0.960175" width="54.0459" height="81.2263" filterUnits="userSpaceOnUse" color-interpolation-filters="sRGB">
<feFlood flood-opacity="0" result="BackgroundImageFix"/>
<feColorMatrix in="SourceAlpha" type="matrix" values="0 0 0 0 0 0 0 0 0 0 0 0 0 0 0 0 0 0 127 0" result="hardAlpha"/>
<feOffset dx="5" dy="10"/>
<feGaussianBlur stdDeviation="2"/>
<feComposite in2="hardAlpha" operator="out"/>
<feColorMatrix type="matrix" values="0 0 0 0 0 0 0 0 0 0 0 0 0 0 0 0 0 0 0.25 0"/>
<feBlend mode="normal" in2="BackgroundImageFix" result="effect1_dropShadow_515_42"/>
<feBlend mode="normal" in="SourceGraphic" in2="effect1_dropShadow_515_42" result="shape"/>
</filter>
<filter id="filter11_d_515_42" x="612.693" y="1.78702" width="57.3066" height="81.213" filterUnits="userSpaceOnUse" color-interpolation-filters="sRGB">
<feFlood flood-opacity="0" result="BackgroundImageFix"/>
<feColorMatrix in="SourceAlpha" type="matrix" values="0 0 0 0 0 0 0 0 0 0 0 0 0 0 0 0 0 0 127 0" result="hardAlpha"/>
<feOffset dx="5" dy="10"/>
<feGaussianBlur stdDeviation="2"/>
<feComposite in2="hardAlpha" operator="out"/>
<feColorMatrix type="matrix" values="0 0 0 0 0 0 0 0 0 0 0 0 0 0 0 0 0 0 0.25 0"/>
<feBlend mode="normal" in2="BackgroundImageFix" result="effect1_dropShadow_515_42"/>
<feBlend mode="normal" in="SourceGraphic" in2="effect1_dropShadow_515_42" result="shape"/>
</filter>
</defs>
</svg>
