<svg width="323" height="51" viewBox="0 0 323 51" fill="none" xmlns="http://www.w3.org/2000/svg">
<g clip-path="url(#clip0_483_15)">
<path d="M238.29 0H272.13V10.8H266.59C263.29 10.8 260.61 13.48 260.61 16.78V50.4H249.81V16.78C249.81 13.48 247.13 10.8 243.83 10.8H238.29V0Z" fill="#C5C7CB"/>
<path d="M122.07 0H155.91V10.8H150.37C147.07 10.8 144.39 13.48 144.39 16.78V50.4H133.59V16.78C133.59 13.48 130.91 10.8 127.61 10.8H122.07V0Z" fill="#C5C7CB"/>
<path d="M161.87 0H187.72L192.62 50.4H181.82L181.05 41.94C180.87 40.01 179.25 38.52 177.31 38.52H172.29C170.35 38.52 168.73 40 168.55 41.94L167.78 50.4H156.98L161.87 0ZM173.91 27.72H175.67C177.88 27.72 179.62 25.82 179.41 23.61L178.53 14.2C178.35 12.27 176.73 10.79 174.79 10.79C172.85 10.79 171.23 12.27 171.05 14.2L170.17 23.61C169.96 25.81 171.7 27.72 173.91 27.72Z" fill="#C5C7CB"/>
<path d="M209.09 33.44V50.41H198.29V0H209.09V16.53C209.09 18.22 210.46 19.58 212.14 19.58C213.31 19.58 214.38 18.91 214.89 17.85L223.49 0H234.87L223.38 22.98C222.95 23.83 222.95 24.84 223.38 25.7L235.6 50.4H223.72L214.9 32.11C214.39 31.05 213.32 30.38 212.15 30.38C210.46 30.38 209.1 31.75 209.1 33.43L209.09 33.44Z" fill="#C5C7CB"/>
<path d="M10.8 33.44V50.41H0V0H10.8V16.53C10.8 18.22 12.17 19.58 13.85 19.58C15.02 19.58 16.09 18.91 16.6 17.85L25.2 0H36.58L25.09 22.98C24.66 23.83 24.66 24.84 25.09 25.7L37.31 50.4H25.43L16.61 32.11C16.1 31.05 15.03 30.38 13.86 30.38C12.17 30.38 10.81 31.75 10.81 33.43L10.8 33.44Z" fill="#C5C7CB"/>
<path d="M42.99 0H76.83V50.4H42.99V0ZM53.8 16.92V33.48C53.8 36.86 56.54 39.6 59.92 39.6C63.3 39.6 66.04 36.86 66.04 33.48V16.92C66.04 13.54 63.3 10.8 59.92 10.8C56.54 10.8 53.8 13.54 53.8 16.92Z" fill="#C5C7CB"/>
<path d="M82.53 0H93.33V13.46C93.33 16.84 96.07 19.58 99.45 19.58C102.83 19.58 105.57 16.84 105.57 13.46V0H116.37V50.4H105.57V36.5C105.57 33.12 102.83 30.38 99.45 30.38C96.07 30.38 93.33 33.12 93.33 36.5V50.4H82.53V0Z" fill="#C5C7CB"/>
<path d="M276.43 50.4V0H287.23V13.36C287.23 16.2 289.53 18.51 292.38 18.51H309.55V50.41H276.43V50.4ZM287.23 34.45C287.23 37.29 289.53 39.6 292.38 39.6H293.6C296.44 39.6 298.75 37.3 298.75 34.45C298.75 31.61 296.45 29.3 293.6 29.3H292.38C289.54 29.3 287.23 31.6 287.23 34.45Z" fill="#C5C7CB"/>
<path d="M322.19 0H311.39V50.4H322.19V0Z" fill="#C5C7CB"/>
</g>
<defs>
<clipPath id="clip0_483_15">
<rect width="322.19" height="50.4" fill="white"/>
</clipPath>
</defs>
</svg>
