<svg width="1335" height="157" viewBox="0 0 1335 157" fill="none" xmlns="http://www.w3.org/2000/svg">
<g filter="url(#filter0_d_498_3)">
<path d="M640.599 0H725.537V88.4784H687.46C676.542 88.4784 667.706 97.3313 667.706 108.216V126.398H640.599V0ZM667.706 42.4335V46.0449C667.706 54.5216 674.584 61.3932 683.068 61.3932C691.551 61.3932 698.429 54.5216 698.429 46.0449V42.4335C698.429 33.9569 691.551 27.0852 683.068 27.0852C674.584 27.0852 667.706 33.9569 667.706 42.4335Z" fill="#A3C121"/>
</g>
<g filter="url(#filter1_d_498_3)">
<path d="M452.977 0H522.905V126.398H495.797V37.2422C495.797 31.6245 491.254 27.0852 485.632 27.0852C480.486 27.0852 476.169 30.8972 475.541 35.9883L465.552 116.767C464.874 122.26 460.205 126.373 454.658 126.373H431.993V99.2874H432.671C437.841 99.2874 442.184 95.4002 442.786 90.259L452.977 0Z" fill="#A3C121"/>
</g>
<g filter="url(#filter2_d_498_3)">
<path d="M0 0H27.1078C38.4028 20.2136 67.4935 20.2136 78.7884 0H105.896V126.398H78.7884V73.5063C78.7884 65.6315 68.3218 62.8728 64.4313 69.7194L52.9607 89.933L41.4901 69.7194C37.5996 62.8728 27.1329 65.6315 27.1329 73.5063V126.398H0V0Z" fill="#A3C121"/>
</g>
<g filter="url(#filter3_d_498_3)">
<path d="M599.636 0H626.743V126.398H599.636V99.0617C599.636 87.5254 583.948 83.9893 579.003 94.4221L563.843 126.398H536.735V0H563.843V27.336C563.843 38.8723 579.531 42.4085 584.475 31.9756L599.636 0Z" fill="#A3C121"/>
</g>
<g filter="url(#filter4_d_498_3)">
<path d="M335.033 0H418.164V27.0852H373.436C367.186 27.0852 362.141 32.1261 362.141 38.3707C362.141 44.6154 367.186 49.6563 373.436 49.6563H390.705V76.7415H373.436C367.186 76.7415 362.141 81.7823 362.141 88.027C362.141 94.2717 367.186 99.3125 373.436 99.3125H418.164V126.398H335.033V0Z" fill="#A3C121"/>
</g>
<g filter="url(#filter5_d_498_3)">
<path d="M1201.93 0H1229.04V126.398H1201.93V99.0617C1201.93 87.5254 1186.24 83.9893 1181.3 94.4221L1166.14 126.398H1139.03V0H1166.14V27.336C1166.14 38.8723 1181.83 42.4085 1186.77 31.9756L1201.93 0Z" fill="#A3C121"/>
</g>
<g filter="url(#filter6_d_498_3)">
<path d="M1040.24 0H1067.35V33.7562C1067.35 42.2329 1074.22 49.1045 1082.71 49.1045C1091.19 49.1045 1098.07 42.2329 1098.07 33.7562V0H1125.18V126.398H1098.07V91.5381C1098.07 83.0614 1091.19 76.1898 1082.71 76.1898C1074.22 76.1898 1067.35 83.0614 1067.35 91.5381V126.398H1040.24V0Z" fill="#A3C121"/>
</g>
<g filter="url(#filter7_d_498_3)">
<path d="M1242.87 0H1326V27.0852H1281.27C1275.02 27.0852 1269.98 32.1261 1269.98 38.3707C1269.98 44.6154 1275.02 49.6563 1281.27 49.6563H1298.54V76.7415H1281.27C1275.02 76.7415 1269.98 81.7823 1269.98 88.027C1269.98 94.2717 1275.02 99.3125 1281.27 99.3125H1326V126.398H1242.87V0Z" fill="#A3C121"/>
</g>
<g filter="url(#filter8_d_498_3)">
<path d="M949.226 0H1014.11L1026.41 126.398H999.3L997.367 105.181C996.916 100.341 992.849 96.604 987.98 96.604H975.38C970.511 96.604 966.444 100.316 965.993 105.181L964.06 126.398H936.952L949.251 0H949.226ZM979.471 69.5188H983.889C989.436 69.5188 993.803 64.7538 993.276 59.2113L991.067 35.6121C990.616 30.7718 986.549 27.0602 981.68 27.0602C976.811 27.0602 972.745 30.7718 972.293 35.6121L970.084 59.2113C969.557 64.7287 973.924 69.5188 979.471 69.5188Z" fill="#A3C121"/>
</g>
<g filter="url(#filter9_d_498_3)">
<path d="M840.042 0H921.215C922.244 0 923.097 0.852683 923.097 1.88092V49.6563C923.097 50.2331 922.846 50.7597 922.394 51.1108L916.973 55.4746C912.053 59.437 912.053 66.9356 916.973 70.8981L922.394 75.2618C922.846 75.6129 923.097 76.1647 923.097 76.7164V124.492C923.097 125.52 922.244 126.373 921.215 126.373H840.042C839.013 126.373 838.159 125.52 838.159 124.492V1.88092C838.159 0.852683 839.013 0 840.042 0ZM892.35 27.0852H868.906C866.899 27.0852 865.267 28.7154 865.267 30.7217V46.9227C865.267 48.929 866.899 50.5591 868.906 50.5591H884.795C885.723 50.5591 886.627 50.208 887.305 49.5559L894.86 42.4085C895.588 41.7313 895.989 40.7532 895.989 39.7752V30.7217C895.989 28.7154 894.358 27.0852 892.35 27.0852ZM865.267 79.4751V95.6761C865.267 97.6824 866.899 99.3125 868.906 99.3125H892.35C894.358 99.3125 895.989 97.6824 895.989 95.6761V86.6226C895.989 85.6194 895.588 84.6664 894.86 83.9893L887.305 76.8418C886.627 76.2148 885.723 75.8387 884.795 75.8387H868.906C866.899 75.8387 865.267 77.4688 865.267 79.4751Z" fill="#A3C121"/>
</g>
<g filter="url(#filter10_d_498_3)">
<path d="M242.389 0H310.711V88.8295C310.711 94.6228 315.405 99.3125 321.203 99.3125V143H294.095V136.128C294.095 130.736 289.727 126.398 284.356 126.398H255.416C250.019 126.398 245.677 130.761 245.677 136.128V143H218.569V99.3125C224.568 99.3125 229.638 94.8736 230.442 88.9298L242.389 0ZM266.585 99.3125H273.839C279.236 99.3125 283.578 94.9488 283.578 89.5819V36.8159C283.578 31.4239 279.211 27.0852 273.839 27.0852C268.97 27.0852 264.853 30.6715 264.176 35.5117L256.922 88.2527C256.119 94.0961 260.662 99.3125 266.585 99.3125Z" fill="#A3C121"/>
</g>
<g filter="url(#filter11_d_498_3)">
<path d="M739.366 0H824.304V126.398H739.366V0ZM766.499 42.4335V83.9642C766.499 92.4409 773.376 99.3125 781.86 99.3125C790.344 99.3125 797.221 92.4409 797.221 83.9642V42.4335C797.221 33.9569 790.344 27.0852 781.86 27.0852C773.376 27.0852 766.499 33.9569 766.499 42.4335Z" fill="#A3C121"/>
</g>
<g filter="url(#filter12_d_498_3)">
<path d="M119.751 0H204.689V126.398H119.751V0ZM146.859 42.4335V83.9642C146.859 92.4409 153.736 99.3125 162.22 99.3125C170.704 99.3125 177.581 92.4409 177.581 83.9642V42.4335C177.581 33.9569 170.704 27.0852 162.22 27.0852C153.736 27.0852 146.859 33.9569 146.859 42.4335Z" fill="#A3C121"/>
</g>
<defs>
<filter id="filter0_d_498_3" x="640.599" y="0" width="93.9375" height="140.398" filterUnits="userSpaceOnUse" color-interpolation-filters="sRGB">
<feFlood flood-opacity="0" result="BackgroundImageFix"/>
<feColorMatrix in="SourceAlpha" type="matrix" values="0 0 0 0 0 0 0 0 0 0 0 0 0 0 0 0 0 0 127 0" result="hardAlpha"/>
<feOffset dx="5" dy="10"/>
<feGaussianBlur stdDeviation="2"/>
<feComposite in2="hardAlpha" operator="out"/>
<feColorMatrix type="matrix" values="0 0 0 0 0 0 0 0 0 0 0 0 0 0 0 0 0 0 0.25 0"/>
<feBlend mode="normal" in2="BackgroundImageFix" result="effect1_dropShadow_498_3"/>
<feBlend mode="normal" in="SourceGraphic" in2="effect1_dropShadow_498_3" result="shape"/>
</filter>
<filter id="filter1_d_498_3" x="431.993" y="0" width="99.9121" height="140.398" filterUnits="userSpaceOnUse" color-interpolation-filters="sRGB">
<feFlood flood-opacity="0" result="BackgroundImageFix"/>
<feColorMatrix in="SourceAlpha" type="matrix" values="0 0 0 0 0 0 0 0 0 0 0 0 0 0 0 0 0 0 127 0" result="hardAlpha"/>
<feOffset dx="5" dy="10"/>
<feGaussianBlur stdDeviation="2"/>
<feComposite in2="hardAlpha" operator="out"/>
<feColorMatrix type="matrix" values="0 0 0 0 0 0 0 0 0 0 0 0 0 0 0 0 0 0 0.25 0"/>
<feBlend mode="normal" in2="BackgroundImageFix" result="effect1_dropShadow_498_3"/>
<feBlend mode="normal" in="SourceGraphic" in2="effect1_dropShadow_498_3" result="shape"/>
</filter>
<filter id="filter2_d_498_3" x="0" y="0" width="114.896" height="140.398" filterUnits="userSpaceOnUse" color-interpolation-filters="sRGB">
<feFlood flood-opacity="0" result="BackgroundImageFix"/>
<feColorMatrix in="SourceAlpha" type="matrix" values="0 0 0 0 0 0 0 0 0 0 0 0 0 0 0 0 0 0 127 0" result="hardAlpha"/>
<feOffset dx="5" dy="10"/>
<feGaussianBlur stdDeviation="2"/>
<feComposite in2="hardAlpha" operator="out"/>
<feColorMatrix type="matrix" values="0 0 0 0 0 0 0 0 0 0 0 0 0 0 0 0 0 0 0.25 0"/>
<feBlend mode="normal" in2="BackgroundImageFix" result="effect1_dropShadow_498_3"/>
<feBlend mode="normal" in="SourceGraphic" in2="effect1_dropShadow_498_3" result="shape"/>
</filter>
<filter id="filter3_d_498_3" x="536.735" y="0" width="99.0078" height="140.398" filterUnits="userSpaceOnUse" color-interpolation-filters="sRGB">
<feFlood flood-opacity="0" result="BackgroundImageFix"/>
<feColorMatrix in="SourceAlpha" type="matrix" values="0 0 0 0 0 0 0 0 0 0 0 0 0 0 0 0 0 0 127 0" result="hardAlpha"/>
<feOffset dx="5" dy="10"/>
<feGaussianBlur stdDeviation="2"/>
<feComposite in2="hardAlpha" operator="out"/>
<feColorMatrix type="matrix" values="0 0 0 0 0 0 0 0 0 0 0 0 0 0 0 0 0 0 0.25 0"/>
<feBlend mode="normal" in2="BackgroundImageFix" result="effect1_dropShadow_498_3"/>
<feBlend mode="normal" in="SourceGraphic" in2="effect1_dropShadow_498_3" result="shape"/>
</filter>
<filter id="filter4_d_498_3" x="335.033" y="0" width="92.1309" height="140.398" filterUnits="userSpaceOnUse" color-interpolation-filters="sRGB">
<feFlood flood-opacity="0" result="BackgroundImageFix"/>
<feColorMatrix in="SourceAlpha" type="matrix" values="0 0 0 0 0 0 0 0 0 0 0 0 0 0 0 0 0 0 127 0" result="hardAlpha"/>
<feOffset dx="5" dy="10"/>
<feGaussianBlur stdDeviation="2"/>
<feComposite in2="hardAlpha" operator="out"/>
<feColorMatrix type="matrix" values="0 0 0 0 0 0 0 0 0 0 0 0 0 0 0 0 0 0 0.25 0"/>
<feBlend mode="normal" in2="BackgroundImageFix" result="effect1_dropShadow_498_3"/>
<feBlend mode="normal" in="SourceGraphic" in2="effect1_dropShadow_498_3" result="shape"/>
</filter>
<filter id="filter5_d_498_3" x="1139.03" y="0" width="99.0078" height="140.398" filterUnits="userSpaceOnUse" color-interpolation-filters="sRGB">
<feFlood flood-opacity="0" result="BackgroundImageFix"/>
<feColorMatrix in="SourceAlpha" type="matrix" values="0 0 0 0 0 0 0 0 0 0 0 0 0 0 0 0 0 0 127 0" result="hardAlpha"/>
<feOffset dx="5" dy="10"/>
<feGaussianBlur stdDeviation="2"/>
<feComposite in2="hardAlpha" operator="out"/>
<feColorMatrix type="matrix" values="0 0 0 0 0 0 0 0 0 0 0 0 0 0 0 0 0 0 0.25 0"/>
<feBlend mode="normal" in2="BackgroundImageFix" result="effect1_dropShadow_498_3"/>
<feBlend mode="normal" in="SourceGraphic" in2="effect1_dropShadow_498_3" result="shape"/>
</filter>
<filter id="filter6_d_498_3" x="1040.24" y="0" width="93.9375" height="140.398" filterUnits="userSpaceOnUse" color-interpolation-filters="sRGB">
<feFlood flood-opacity="0" result="BackgroundImageFix"/>
<feColorMatrix in="SourceAlpha" type="matrix" values="0 0 0 0 0 0 0 0 0 0 0 0 0 0 0 0 0 0 127 0" result="hardAlpha"/>
<feOffset dx="5" dy="10"/>
<feGaussianBlur stdDeviation="2"/>
<feComposite in2="hardAlpha" operator="out"/>
<feColorMatrix type="matrix" values="0 0 0 0 0 0 0 0 0 0 0 0 0 0 0 0 0 0 0.25 0"/>
<feBlend mode="normal" in2="BackgroundImageFix" result="effect1_dropShadow_498_3"/>
<feBlend mode="normal" in="SourceGraphic" in2="effect1_dropShadow_498_3" result="shape"/>
</filter>
<filter id="filter7_d_498_3" x="1242.87" y="0" width="92.1309" height="140.398" filterUnits="userSpaceOnUse" color-interpolation-filters="sRGB">
<feFlood flood-opacity="0" result="BackgroundImageFix"/>
<feColorMatrix in="SourceAlpha" type="matrix" values="0 0 0 0 0 0 0 0 0 0 0 0 0 0 0 0 0 0 127 0" result="hardAlpha"/>
<feOffset dx="5" dy="10"/>
<feGaussianBlur stdDeviation="2"/>
<feComposite in2="hardAlpha" operator="out"/>
<feColorMatrix type="matrix" values="0 0 0 0 0 0 0 0 0 0 0 0 0 0 0 0 0 0 0.25 0"/>
<feBlend mode="normal" in2="BackgroundImageFix" result="effect1_dropShadow_498_3"/>
<feBlend mode="normal" in="SourceGraphic" in2="effect1_dropShadow_498_3" result="shape"/>
</filter>
<filter id="filter8_d_498_3" x="936.952" y="0" width="98.4561" height="140.398" filterUnits="userSpaceOnUse" color-interpolation-filters="sRGB">
<feFlood flood-opacity="0" result="BackgroundImageFix"/>
<feColorMatrix in="SourceAlpha" type="matrix" values="0 0 0 0 0 0 0 0 0 0 0 0 0 0 0 0 0 0 127 0" result="hardAlpha"/>
<feOffset dx="5" dy="10"/>
<feGaussianBlur stdDeviation="2"/>
<feComposite in2="hardAlpha" operator="out"/>
<feColorMatrix type="matrix" values="0 0 0 0 0 0 0 0 0 0 0 0 0 0 0 0 0 0 0.25 0"/>
<feBlend mode="normal" in2="BackgroundImageFix" result="effect1_dropShadow_498_3"/>
<feBlend mode="normal" in="SourceGraphic" in2="effect1_dropShadow_498_3" result="shape"/>
</filter>
<filter id="filter9_d_498_3" x="838.159" y="0" width="93.9375" height="140.373" filterUnits="userSpaceOnUse" color-interpolation-filters="sRGB">
<feFlood flood-opacity="0" result="BackgroundImageFix"/>
<feColorMatrix in="SourceAlpha" type="matrix" values="0 0 0 0 0 0 0 0 0 0 0 0 0 0 0 0 0 0 127 0" result="hardAlpha"/>
<feOffset dx="5" dy="10"/>
<feGaussianBlur stdDeviation="2"/>
<feComposite in2="hardAlpha" operator="out"/>
<feColorMatrix type="matrix" values="0 0 0 0 0 0 0 0 0 0 0 0 0 0 0 0 0 0 0.25 0"/>
<feBlend mode="normal" in2="BackgroundImageFix" result="effect1_dropShadow_498_3"/>
<feBlend mode="normal" in="SourceGraphic" in2="effect1_dropShadow_498_3" result="shape"/>
</filter>
<filter id="filter10_d_498_3" x="218.569" y="0" width="111.633" height="157" filterUnits="userSpaceOnUse" color-interpolation-filters="sRGB">
<feFlood flood-opacity="0" result="BackgroundImageFix"/>
<feColorMatrix in="SourceAlpha" type="matrix" values="0 0 0 0 0 0 0 0 0 0 0 0 0 0 0 0 0 0 127 0" result="hardAlpha"/>
<feOffset dx="5" dy="10"/>
<feGaussianBlur stdDeviation="2"/>
<feComposite in2="hardAlpha" operator="out"/>
<feColorMatrix type="matrix" values="0 0 0 0 0 0 0 0 0 0 0 0 0 0 0 0 0 0 0.25 0"/>
<feBlend mode="normal" in2="BackgroundImageFix" result="effect1_dropShadow_498_3"/>
<feBlend mode="normal" in="SourceGraphic" in2="effect1_dropShadow_498_3" result="shape"/>
</filter>
<filter id="filter11_d_498_3" x="739.366" y="0" width="93.9375" height="140.398" filterUnits="userSpaceOnUse" color-interpolation-filters="sRGB">
<feFlood flood-opacity="0" result="BackgroundImageFix"/>
<feColorMatrix in="SourceAlpha" type="matrix" values="0 0 0 0 0 0 0 0 0 0 0 0 0 0 0 0 0 0 127 0" result="hardAlpha"/>
<feOffset dx="5" dy="10"/>
<feGaussianBlur stdDeviation="2"/>
<feComposite in2="hardAlpha" operator="out"/>
<feColorMatrix type="matrix" values="0 0 0 0 0 0 0 0 0 0 0 0 0 0 0 0 0 0 0.25 0"/>
<feBlend mode="normal" in2="BackgroundImageFix" result="effect1_dropShadow_498_3"/>
<feBlend mode="normal" in="SourceGraphic" in2="effect1_dropShadow_498_3" result="shape"/>
</filter>
<filter id="filter12_d_498_3" x="119.751" y="0" width="93.9375" height="140.398" filterUnits="userSpaceOnUse" color-interpolation-filters="sRGB">
<feFlood flood-opacity="0" result="BackgroundImageFix"/>
<feColorMatrix in="SourceAlpha" type="matrix" values="0 0 0 0 0 0 0 0 0 0 0 0 0 0 0 0 0 0 127 0" result="hardAlpha"/>
<feOffset dx="5" dy="10"/>
<feGaussianBlur stdDeviation="2"/>
<feComposite in2="hardAlpha" operator="out"/>
<feColorMatrix type="matrix" values="0 0 0 0 0 0 0 0 0 0 0 0 0 0 0 0 0 0 0.25 0"/>
<feBlend mode="normal" in2="BackgroundImageFix" result="effect1_dropShadow_498_3"/>
<feBlend mode="normal" in="SourceGraphic" in2="effect1_dropShadow_498_3" result="shape"/>
</filter>
</defs>
</svg>
