<svg width="849" height="135" viewBox="0 0 849 135" fill="none" xmlns="http://www.w3.org/2000/svg">
<g filter="url(#filter0_d_345_247)">
<path d="M0 4.63339H75.3915V116.367H51.3304V42.1438C51.3304 34.6506 45.226 28.5762 37.6957 28.5762C30.1655 28.5762 24.0611 34.6506 24.0611 42.1438V116.367H0V4.63339Z" fill="#A3C121"/>
<path d="M90.3406 4.63339H165.732V116.367H90.3406V4.63339ZM114.402 42.1438V78.8562C114.402 86.3494 120.506 92.4238 128.036 92.4238C135.567 92.4238 141.671 86.3494 141.671 78.8562V42.1438C141.671 34.6506 135.567 28.5762 128.036 28.5762C120.506 28.5762 114.402 34.6506 114.402 42.1438Z" fill="#A3C121"/>
<path d="M180.681 4.63339H256.073V82.8466H222.276C212.584 82.8466 204.742 90.6724 204.742 100.294V116.367H180.681V4.63339ZM204.742 42.1438V45.3362C204.742 52.8294 210.847 58.9038 218.377 58.9038C225.907 58.9038 232.012 52.8294 232.012 45.3362V42.1438C232.012 34.6506 225.907 28.5762 218.377 28.5762C210.847 28.5762 204.742 34.6506 204.742 42.1438Z" fill="#A3C121"/>
<path d="M271.022 4.63339H346.413V28.5762H334.071C326.719 28.5762 320.748 34.5176 320.748 41.8335V116.367H296.687V41.8335C296.687 34.5176 290.716 28.5762 283.364 28.5762H271.022V4.63339Z" fill="#A3C121"/>
<path d="M361.385 102.156V16.76H386.248C395.538 16.76 403.09 9.26676 403.09 0H427.152C427.152 9.26676 434.682 16.76 443.994 16.76H468.857V102.156H446.089C435.64 102.156 427.152 110.58 427.152 121H403.09C403.09 110.603 394.624 102.156 384.153 102.156H361.385ZM394.669 79.8094C399.771 79.8094 403.892 75.7081 403.892 70.6314V48.2847C403.892 43.208 399.771 39.1066 394.669 39.1066C389.567 39.1066 385.446 43.208 385.446 48.2847V70.6314C385.446 75.7081 389.567 79.8094 394.669 79.8094ZM426.349 48.2847V70.6314C426.349 75.7081 430.471 79.8094 435.573 79.8094C440.675 79.8094 444.796 75.7081 444.796 70.6314V48.2847C444.796 43.208 440.675 39.1066 435.573 39.1066C430.471 39.1066 426.349 43.208 426.349 48.2847Z" fill="#A3C121"/>
<path d="M483.807 4.63339H559.198V116.367H483.807V4.63339ZM507.868 42.1438V78.8562C507.868 86.3494 513.972 92.4238 521.502 92.4238C529.033 92.4238 535.137 86.3494 535.137 78.8562V42.1438C535.137 34.6506 529.033 28.5762 521.502 28.5762C513.972 28.5762 507.868 34.6506 507.868 42.1438Z" fill="#A3C121"/>
<path d="M592.75 4.63338H654.819V116.367H630.757V37.5548C630.757 32.5889 626.725 28.5762 621.735 28.5762C617.167 28.5762 613.335 31.9459 612.778 36.4463L603.912 107.854C603.31 112.709 599.166 116.344 594.243 116.344H574.125V92.4016H574.726C579.316 92.4016 583.17 88.9654 583.705 84.4207L592.75 4.61121V4.63338Z" fill="#A3C121"/>
<path d="M725.598 4.63339H749.66V116.367H725.598V92.2021C725.598 82.0042 711.674 78.8784 707.285 88.1008L693.829 116.367H669.768V4.63339H693.829V28.7979C693.829 38.9958 707.753 42.1217 712.142 32.8992L725.598 4.63339Z" fill="#A3C121"/>
<path d="M764.608 4.63339H840V116.367H764.608V4.63339ZM788.669 42.1438V78.8562C788.669 86.3494 794.774 92.4238 802.304 92.4238C809.834 92.4238 815.939 86.3494 815.939 78.8562V42.1438C815.939 34.6506 809.834 28.5762 802.304 28.5762C794.774 28.5762 788.669 34.6506 788.669 42.1438Z" fill="#A3C121"/>
</g>
<defs>
<filter id="filter0_d_345_247" x="0" y="0" width="849" height="135" filterUnits="userSpaceOnUse" color-interpolation-filters="sRGB">
<feFlood flood-opacity="0" result="BackgroundImageFix"/>
<feColorMatrix in="SourceAlpha" type="matrix" values="0 0 0 0 0 0 0 0 0 0 0 0 0 0 0 0 0 0 127 0" result="hardAlpha"/>
<feOffset dx="5" dy="10"/>
<feGaussianBlur stdDeviation="2"/>
<feComposite in2="hardAlpha" operator="out"/>
<feColorMatrix type="matrix" values="0 0 0 0 0 0 0 0 0 0 0 0 0 0 0 0 0 0 0.25 0"/>
<feBlend mode="normal" in2="BackgroundImageFix" result="effect1_dropShadow_345_247"/>
<feBlend mode="normal" in="SourceGraphic" in2="effect1_dropShadow_345_247" result="shape"/>
</filter>
</defs>
</svg>
