<svg width="670" height="566" viewBox="0 0 670 566" fill="none" xmlns="http://www.w3.org/2000/svg">
<g filter="url(#filter0_d_525_4)">
<rect width="661" height="552" fill="#D9D9D9" fill-opacity="0.5" shape-rendering="crispEdges"/>
</g>
<path d="M71.6689 289.005H88.6063V314.231H83.2007V297.474C83.2007 295.782 81.8293 294.411 80.1376 294.411C78.4459 294.411 77.0745 295.782 77.0745 297.474V314.231H71.6689V289.005Z" fill="#2C455B"/>
<path d="M33.3754 289.005H49.5619C49.7671 289.005 49.9373 289.175 49.9373 289.38V298.915C49.9373 299.03 49.8873 299.135 49.7972 299.205L48.7161 300.076C47.7351 300.867 47.7351 302.364 48.7161 303.154L49.7972 304.025C49.8873 304.095 49.9373 304.206 49.9373 304.316V313.85C49.9373 314.056 49.7671 314.226 49.5619 314.226H33.3754C33.1702 314.226 33 314.056 33 313.85V289.375C33 289.17 33.1702 289 33.3754 289V289.005ZM43.8061 294.411H39.1313C38.7309 294.411 38.4055 294.736 38.4055 295.136V298.37C38.4055 298.77 38.7309 299.095 39.1313 299.095H42.2995C42.4847 299.095 42.6649 299.025 42.8 298.895L44.3066 297.469C44.4517 297.334 44.5318 297.138 44.5318 296.943V295.136C44.5318 294.736 44.2065 294.411 43.8061 294.411ZM38.4055 304.866V308.1C38.4055 308.5 38.7309 308.825 39.1313 308.825H43.8061C44.2065 308.825 44.5318 308.5 44.5318 308.1V306.293C44.5318 306.092 44.4517 305.902 44.3066 305.767L42.8 304.341C42.6649 304.216 42.4847 304.14 42.2995 304.14H39.1313C38.7309 304.14 38.4055 304.466 38.4055 304.866Z" fill="#2C455B"/>
<path d="M91.0039 289.005H107.941V306.663H100.348C98.1712 306.663 96.4094 308.43 96.4094 310.602V314.231H91.0039V289.005ZM96.4094 297.474V298.194C96.4094 299.886 97.7808 301.258 99.4726 301.258C101.164 301.258 102.536 299.886 102.536 298.194V297.474C102.536 295.782 101.164 294.411 99.4726 294.411C97.7808 294.411 96.4094 295.782 96.4094 297.474Z" fill="#2C455B"/>
<path d="M110.338 289.005H127.275V314.231H110.338V289.005ZM115.743 297.474V305.762C115.743 307.454 117.115 308.825 118.807 308.825C120.498 308.825 121.87 307.454 121.87 305.762V297.474C121.87 295.782 120.498 294.411 118.807 294.411C117.115 294.411 115.743 295.782 115.743 297.474Z" fill="#2C455B"/>
<path d="M52.334 289.005H69.2713V314.231H52.334V289.005ZM57.7395 297.474V305.762C57.7395 307.454 59.1109 308.825 60.8026 308.825C62.4944 308.825 63.8658 307.454 63.8658 305.762V297.474C63.8658 295.782 62.4944 294.411 60.8026 294.411C59.1109 294.411 57.7395 295.782 57.7395 297.474Z" fill="#2C455B"/>
<path d="M129.674 289.005H146.611V296.863H141.206C141.206 295.512 140.11 294.411 138.753 294.411H137.527C136.175 294.411 135.074 295.507 135.074 296.863V306.378C135.074 307.729 136.17 308.83 137.527 308.83H138.753C140.104 308.83 141.206 307.734 141.206 306.378H146.611V314.236H129.674V289.01V289.005Z" fill="#2C455B"/>
<path d="M110.363 135.548V116.268H115.949C118.041 116.268 119.733 114.576 119.733 112.484H125.138C125.138 114.576 126.83 116.268 128.922 116.268H134.508V135.548H129.393C127.045 135.548 125.138 137.45 125.138 139.802H119.733C119.733 137.455 117.831 135.548 115.479 135.548H110.363ZM117.841 130.503C118.987 130.503 119.913 129.577 119.913 128.431V123.385C119.913 122.239 118.987 121.313 117.841 121.313C116.695 121.313 115.769 122.239 115.769 123.385V128.431C115.769 129.577 116.695 130.503 117.841 130.503ZM124.958 123.385V128.431C124.958 129.577 125.884 130.503 127.03 130.503C128.176 130.503 129.102 129.577 129.102 128.431V123.385C129.102 122.239 128.176 121.313 127.03 121.313C125.884 121.313 124.958 122.239 124.958 123.385Z" fill="#2C455B"/>
<path d="M136.791 113.525H153.728V138.751H136.791V113.525ZM142.197 121.994V130.282C142.197 131.974 143.568 133.346 145.26 133.346C146.951 133.346 148.323 131.974 148.323 130.282V121.994C148.323 120.302 146.951 118.931 145.26 118.931C143.568 118.931 142.197 120.302 142.197 121.994Z" fill="#2C455B"/>
<path d="M156.016 113.525H161.421V120.262C161.421 121.954 162.793 123.325 164.484 123.325C166.176 123.325 167.547 121.954 167.547 120.262V113.525H172.953V138.751H167.547V131.794C167.547 130.102 166.176 128.731 164.484 128.731C162.793 128.731 161.421 130.102 161.421 131.794V138.751H156.016V113.525Z" fill="#2C455B"/>
<path d="M75.2673 113.525H89.2115V138.751H83.806V120.958C83.806 119.837 82.9001 118.931 81.7789 118.931C80.7529 118.931 79.892 119.692 79.7669 120.708L77.7748 136.829C77.6397 137.925 76.7088 138.746 75.6026 138.746H71.083V133.341H71.2181C72.2492 133.341 73.1151 132.565 73.2352 131.539L75.2673 113.52V113.525Z" fill="#2C455B"/>
<path d="M91.5 113.525H108.077V118.931H99.1578C97.9116 118.931 96.9055 119.937 96.9055 121.183C96.9055 122.429 97.9116 123.435 99.1578 123.435H102.601V128.841H99.1578C97.9116 128.841 96.9055 129.847 96.9055 131.093C96.9055 132.34 97.9116 133.346 99.1578 133.346H108.077V138.751H91.5V113.525Z" fill="#2C455B"/>
<path d="M33 113.525H49.9373V118.931H47.1645C45.5128 118.931 44.1714 120.272 44.1714 121.924V138.751H38.7659V121.924C38.7659 120.272 37.4245 118.931 35.7728 118.931H33V113.525Z" fill="#2C455B"/>
<path d="M52.2236 113.525H68.8006V118.931H59.8815C58.6352 118.931 57.6292 119.937 57.6292 121.183C57.6292 122.429 58.6352 123.435 59.8815 123.435H63.325V128.841H59.8815C58.6352 128.841 57.6292 129.847 57.6292 131.093C57.6292 132.34 58.6352 133.346 59.8815 133.346H68.8006V138.751H52.2236V113.525Z" fill="#2C455B"/>
<path d="M53.3301 25H58.7356C60.9879 29.0341 66.7888 29.0341 69.0411 25H74.4467V50.2258H69.0411V39.67C69.0411 38.0984 66.954 37.5478 66.1782 38.9142L63.8909 42.9484L61.6035 38.9142C60.8277 37.5478 58.7406 38.0984 58.7406 39.67V50.2258H53.3351V25H53.3301Z" fill="#2C455B"/>
<path d="M45.5428 25H50.9484V50.2258H45.5428V44.7702C45.5428 42.4679 42.4146 41.7621 41.4286 43.8443L38.4055 50.2258H33V25H38.4055V30.4556C38.4055 32.7579 41.5337 33.4637 42.5197 31.3815L45.5428 25Z" fill="#2C455B"/>
<path d="M94.1714 25V50.2258H88.7659V41.9373H86.2082L82.1341 50.2258H76.0078L80.6225 41.7571H77.2341V25H94.1714ZM88.7659 30.4055H82.6396V36.5318H88.7659V30.4055Z" fill="#2C455B"/>
<path d="M57.0146 201.604H62.4202C64.6725 205.638 70.4734 205.638 72.7257 201.604H78.1312V226.83H72.7257V216.274C72.7257 214.702 70.6386 214.152 69.8628 215.518L67.5754 219.552L65.2881 215.518C64.5123 214.152 62.4252 214.702 62.4252 216.274V226.83H57.0197V201.604H57.0146Z" fill="#2C455B"/>
<path d="M83.1809 201.604H96.1191L98.5716 226.83H93.1661L92.7807 222.595C92.6906 221.629 91.8798 220.883 90.9088 220.883H88.3962C87.4252 220.883 86.6144 221.624 86.5243 222.595L86.1389 226.83H80.7334L83.1859 201.604H83.1809ZM89.2071 215.478H90.088C91.1941 215.478 92.065 214.527 91.9599 213.421L91.5194 208.711C91.4293 207.745 90.6185 207.004 89.6475 207.004C88.6765 207.004 87.8657 207.745 87.7756 208.711L87.3352 213.421C87.23 214.522 88.1009 215.478 89.2071 215.478Z" fill="#2C455B"/>
<path d="M33 201.604H49.577V207.009H40.6578C39.4116 207.009 38.4055 208.015 38.4055 209.262C38.4055 210.508 39.4116 211.514 40.6578 211.514H44.1014V216.919H40.6578C39.4116 216.919 38.4055 217.925 38.4055 219.172C38.4055 220.418 39.4116 221.424 40.6578 221.424H49.577V226.83H33V201.604Z" fill="#2C455B"/>
<path d="M47.1689 211.874H54.4114V216.559H47.1689V211.874Z" fill="#2C455B"/>
<path d="M101.17 201.604H110.9V207.009C109.704 207.009 108.738 207.975 108.738 209.172V219.262C108.738 220.458 109.704 221.424 110.9 221.424V226.83H101.17V221.424C102.366 221.424 103.332 220.458 103.332 219.262V209.172C103.332 207.975 102.366 207.009 101.17 207.009V201.604Z" fill="#2C455B"/>
<path d="M113.497 226.83V201.604H118.903V219.442C118.903 220.538 119.789 221.424 120.885 221.424H122.867C123.963 221.424 124.849 220.538 124.849 219.442H130.254V226.83H113.497Z" fill="#2C455B"/>
<defs>
<filter id="filter0_d_525_4" x="0" y="0" width="670" height="566" filterUnits="userSpaceOnUse" color-interpolation-filters="sRGB">
<feFlood flood-opacity="0" result="BackgroundImageFix"/>
<feColorMatrix in="SourceAlpha" type="matrix" values="0 0 0 0 0 0 0 0 0 0 0 0 0 0 0 0 0 0 127 0" result="hardAlpha"/>
<feOffset dx="5" dy="10"/>
<feGaussianBlur stdDeviation="2"/>
<feComposite in2="hardAlpha" operator="out"/>
<feColorMatrix type="matrix" values="0 0 0 0 0 0 0 0 0 0 0 0 0 0 0 0 0 0 0.25 0"/>
<feBlend mode="normal" in2="BackgroundImageFix" result="effect1_dropShadow_525_4"/>
<feBlend mode="normal" in="SourceGraphic" in2="effect1_dropShadow_525_4" result="shape"/>
</filter>
</defs>
</svg>
