<svg width="33" height="33" viewBox="0 0 33 33" fill="none" xmlns="http://www.w3.org/2000/svg">
<path d="M3.51195 22.0825C3.44728 22.2099 3.42391 22.3543 3.44511 22.4957C3.4663 22.637 3.531 22.7682 3.63021 22.871C3.72942 22.9739 3.85821 23.0432 3.99867 23.0695C4.13914 23.0957 4.28429 23.0776 4.41395 23.0175L7.85008 21.4321C10.7376 20.0984 13.8905 19.4893 17.0365 19.6323C17.074 20.6433 17.1295 21.6535 17.2028 22.6628L17.2977 23.9525C17.3107 24.1316 17.3699 24.3043 17.4697 24.4537C17.5695 24.603 17.7063 24.7239 17.8668 24.8044C18.0273 24.8849 18.206 24.9224 18.3854 24.9131C18.5647 24.9038 18.7386 24.8481 18.89 24.7514C21.7611 22.9147 24.2578 20.5501 26.2476 17.7829L26.8801 16.9029C26.9642 16.7859 27.0095 16.6455 27.0095 16.5014C27.0095 16.3573 26.9642 16.2169 26.8801 16.0999L26.2476 15.2199C24.2579 12.4522 21.7612 10.0871 18.89 8.25002C18.7387 8.15336 18.565 8.09762 18.3857 8.08826C18.2065 8.0789 18.0279 8.11624 17.8674 8.19663C17.7069 8.27701 17.57 8.39768 17.4702 8.54683C17.3703 8.69598 17.3109 8.86851 17.2977 9.04751L17.2028 10.34C17.1401 11.2055 17.0906 12.0718 17.0543 12.9388H16.1688C13.7542 12.9389 11.3869 13.6084 9.32983 14.8727C7.27273 16.1371 5.60634 17.9469 4.5157 20.1011L3.51195 22.0825Z" fill="#C5C7CB"/>
</svg>
